# xmcd
#
# Track frame offsets:
#	150
#	4047
#	25332
#	27260
#	48697
#	64667
#	91165
#	111360
#	112502
#	132622
#	139487
#	166945
#	184897
#	205680
#	225792
#	227220
#	240422
#
# Disc length: 3238 seconds
#
# Revision: 0
# Processed by: cddbd v1.5.2PL0 Copyright (c) Steve Scherf et al.
# Submitted via: dBpowerAMP V4.0
#
DISCID=da0ca411
DTITLE=Ms. Parle - One Bad Mother Comin At Cha
DYEAR=1997
DGENRE=Cali Rap
TTITLE0=The Pick Up(intro)
TTITLE1=Debbie Had A Pimp(Pimpin Dont Stop)
TTITLE2=A Smoked Out Nig. Part 1(interlude)
TTITLE3=Bomb Roma
TTITLE4=Comin Up Aint Easy
TTITLE5=A Flossin We'll Go
TTITLE6=Party With The Playaz
TTITLE7=The Shadow Boxer(interlude)
TTITLE8=I want To Hit It
TTITLE9=Rattling Numbers(Interlude)
TTITLE10=Ome Bad MOther...Comin At Cha
TTITLE11=Do U want To Get Higher
TTITLE12=Let's Get Into It
TTITLE13=Sinista Sista
TTITLE14=A Smoked Out Nig. Part II(interlude)
TTITLE15=Let's Do This..(So Kick That Shit)
TTITLE16=The Nig's Farewell(outro)
EXTD=
EXTT0=
EXTT1=
EXTT2=
EXTT3=
EXTT4=
EXTT5=
EXTT6=
EXTT7=
EXTT8=
EXTT9=
EXTT10=
EXTT11=
EXTT12=
EXTT13=
EXTT14=
EXTT15=
EXTT16=
PLAYORDER=
